<svg width="16" height="16" viewBox="0 0 16 16" fill="none" xmlns="http://www.w3.org/2000/svg">
<path d="M12.6509 2.96094C12.4367 2.96094 12.2625 3.13522 12.2625 3.34938C12.2625 3.56353 12.4367 3.73781 12.6509 3.73781C12.8651 3.73781 13.0393 3.56356 13.0393 3.34938C13.0393 3.13519 12.8651 2.96094 12.6509 2.96094Z" fill="white"/>
<path d="M8.00002 4.55664C6.10121 4.55664 4.5564 6.10145 4.5564 8.00026C4.5564 9.89907 6.10121 11.4439 8.00002 11.4439C9.89886 11.4439 11.4437 9.89911 11.4437 8.00029C11.4437 6.10148 9.89886 4.55664 8.00002 4.55664Z" fill="white"/>
<path d="M11.6138 0H4.38616C1.96762 0 0 1.96763 0 4.38619V11.6138C0 14.0324 1.96762 16 4.38616 16H11.6138C14.0324 16 16 14.0324 16 11.6138V4.38619C16 1.96763 14.0324 0 11.6138 0ZM8 12.3885C5.58016 12.3885 3.61153 10.4198 3.61153 8C3.61153 5.58016 5.58019 3.61156 8 3.61156C10.4198 3.61156 12.3885 5.58019 12.3885 8C12.3885 10.4198 10.4198 12.3885 8 12.3885ZM12.651 4.68237C11.9158 4.68237 11.3177 4.08425 11.3177 3.34906C11.3177 2.61387 11.9158 2.01572 12.651 2.01572C13.3862 2.01572 13.9843 2.61384 13.9843 3.34903C13.9843 4.08422 13.3862 4.68237 12.651 4.68237Z" fill="white"/>
</svg>
