<svg width="12" height="19" viewBox="0 0 12 19" fill="none" xmlns="http://www.w3.org/2000/svg">
<path d="M5.03535 13.3832C3.51589 13.2295 2.14587 12.8668 0.972925 11.9775C0.827384 11.8668 0.677122 11.7602 0.544308 11.6366C0.0309112 11.1586 -0.0208185 10.6112 0.385424 10.0471C0.732957 9.5643 1.31635 9.43515 1.92274 9.71235C2.04016 9.76607 2.15203 9.83314 2.25919 9.90517C4.44518 11.3612 7.44817 11.4014 9.64237 9.97064C9.85975 9.80906 10.0921 9.67732 10.3615 9.61006C10.8851 9.47972 11.3735 9.66618 11.6545 10.1103C11.9755 10.6176 11.9714 11.1127 11.5759 11.5065C10.9691 12.1102 10.2393 12.547 9.42847 12.8519C8.66176 13.14 7.82197 13.2851 6.99081 13.3814C7.11623 13.5137 7.17535 13.5788 7.25377 13.6552C8.38238 14.7544 9.51592 15.8491 10.6408 16.9517C11.0241 17.3274 11.1041 17.7932 10.8931 18.2302C10.6624 18.7078 10.1459 19.022 9.63949 18.9884C9.31865 18.9669 9.06841 18.8121 8.8461 18.595C7.99441 17.7642 7.1267 16.9487 6.29225 16.1022C6.04941 15.856 5.93261 15.9026 5.7183 16.1163C4.86148 16.9714 3.99069 17.8133 3.11478 18.6505C2.72147 19.0264 2.25344 19.094 1.79732 18.8793C1.31245 18.6515 1.00392 18.1717 1.02773 17.6896C1.04416 17.3634 1.20961 17.1143 1.44054 16.8908C2.55745 15.8097 3.67128 14.7258 4.78552 13.6428C4.85922 13.5708 4.92799 13.4944 5.03535 13.3832Z" fill="white"/>
<path d="M5.9609 9.61713C3.25022 9.60817 1.02749 7.4298 1.0433 4.79793C1.0589 2.137 3.28307 -0.00734382 6.02043 1.89036e-05C8.76333 0.00718263 10.9649 2.18237 10.9512 4.87096C10.9372 7.49746 8.69908 9.62628 5.9609 9.61713ZM8.42442 4.80429C8.4197 3.49751 7.3461 2.45718 6.00072 2.45598C4.64405 2.45459 3.56081 3.51383 3.57127 4.83255C3.58133 6.13436 4.66417 7.16733 6.01324 7.16255C7.35821 7.15798 8.42893 6.11088 8.42442 4.80429Z" fill="white"/>
</svg>
