<svg width="14" height="14" viewBox="0 0 14 14" fill="none" xmlns="http://www.w3.org/2000/svg">
<path d="M3.7929 3.74609H3.61735L3.28931 5.38672H4.12094L3.7929 3.74609Z" fill="white"/>
<path d="M10.4282 7.02734C10.6053 7.5031 10.8409 7.88821 11.1016 8.21589C11.3623 7.88821 11.6252 7.50307 11.8023 7.02734H10.4282Z" fill="white"/>
<path d="M12.7696 2.48828H7.67592L8.738 11.0108C8.75679 11.3593 8.66149 11.6875 8.43399 11.9444L6.63538 14H12.7696C13.4481 14 14.0001 13.448 14.0001 12.7695V3.74609C14.0001 3.06759 13.4481 2.48828 12.7696 2.48828ZM12.7696 7.02734H12.6601C12.4267 7.7761 12.0566 8.36199 11.672 8.82388C11.9733 9.09934 12.2955 9.32531 12.6158 9.57841C12.7924 9.7198 12.8213 9.97773 12.6795 10.1548C12.5383 10.3316 12.2794 10.3602 12.1031 10.2185C11.755 9.94375 11.4283 9.71378 11.1016 9.41399C10.7749 9.71378 10.4756 9.94375 10.1275 10.2185C9.95122 10.3602 9.69227 10.3316 9.55112 10.1548C9.40932 9.97773 9.43817 9.7198 9.61481 9.57841C9.93514 9.32531 10.23 9.09934 10.5313 8.82388C10.1467 8.36202 9.80389 7.77612 9.57054 7.02734H9.461C9.23429 7.02734 9.05084 6.84389 9.05084 6.61719C9.05084 6.39048 9.23429 6.20703 9.461 6.20703H10.6915V5.79688C10.6915 5.57017 10.8749 5.38672 11.1016 5.38672C11.3283 5.38672 11.5118 5.57017 11.5118 5.79688V6.20703H12.7696C12.9963 6.20703 13.1797 6.39048 13.1797 6.61719C13.1797 6.84389 12.9963 7.02734 12.7696 7.02734Z" fill="white"/>
<path d="M6.67636 1.07786C6.59985 0.463422 6.07474 0 5.45552 0H1.23047C0.551961 0 0 0.551961 0 1.23047V10.3086C0 10.9871 0.551961 11.5391 1.23047 11.5391C3.68238 11.5391 5.44625 11.5391 7.69866 11.5391C7.81832 11.4023 7.91861 11.3166 7.92285 11.1381C7.92389 11.0934 6.68191 1.12227 6.67636 1.07786ZM5.02972 7.83964C4.81223 7.88441 4.59192 7.7432 4.54707 7.518L4.28493 6.20703H3.12525L2.86311 7.518C2.81906 7.73989 2.60515 7.88569 2.38046 7.83964C2.15857 7.79518 2.01436 7.5793 2.05882 7.357L2.87911 3.25544C2.91755 3.06398 3.0858 2.92578 3.28125 2.92578H4.12891C4.32436 2.92578 4.49261 3.06398 4.53105 3.25544L5.35136 7.357C5.39582 7.5793 5.25164 7.79518 5.02972 7.83964Z" fill="white"/>
<path d="M4.79224 12.3594L4.86262 12.9221C4.90954 13.299 5.15995 13.6833 5.57186 13.8752C6.34919 13.0195 5.8789 13.5372 6.94887 12.3594H4.79224Z" fill="white"/>
</svg>
