<svg width="18" height="18" viewBox="0 0 18 18" fill="none" xmlns="http://www.w3.org/2000/svg">
<g style="mix-blend-mode:luminosity" opacity="0.8">
<ellipse cx="9.52939" cy="9" rx="6.35294" ry="6.75" fill="white"/>
<path fill-rule="evenodd" clip-rule="evenodd" d="M8.14522 0.0218543C5.88653 0.256702 3.88297 1.26492 2.33935 2.94337C0.164137 5.30865 -0.564702 8.73562 0.451476 11.8202C0.912127 13.2185 1.64248 14.3889 2.70942 15.4385C4.12285 16.8291 5.84161 17.6629 7.8984 17.9559C8.31659 18.0154 9.69964 18.0145 10.1339 17.9543C12.1986 17.6683 13.976 16.7862 15.4051 15.3382C16.827 13.8974 17.6601 12.1904 17.9558 10.1117C18.0147 9.69734 18.0147 8.30692 17.9558 7.89253C17.7871 6.70671 17.441 5.63621 16.9193 4.68703C16.5076 3.93775 16.0268 3.29601 15.4051 2.66608C14.002 1.24442 12.2605 0.365865 10.2571 0.0690563C9.82524 0.00505184 8.57534 -0.0228466 8.14522 0.0218543ZM13.2131 5.4592C13.3685 5.52419 13.4431 5.67348 13.4431 5.91942C13.4431 6.14483 11.9551 13.218 11.8751 13.3728C11.7623 13.5911 11.5213 13.674 11.2735 13.5797C11.191 13.5483 10.3768 12.9617 9.18755 12.0767L8.8925 11.8572L8.25245 12.4685C7.78616 12.9138 7.58127 13.0866 7.49766 13.105C7.43454 13.1188 7.37494 13.1223 7.36526 13.1125C7.35554 13.1028 7.38156 12.5901 7.42306 11.9732L7.49854 10.8515L7.74571 10.6225C7.88164 10.4966 8.83501 9.63196 9.86429 8.70113C10.8936 7.7703 11.7357 6.98566 11.7357 6.95748C11.7357 6.92165 11.6982 6.90725 11.6111 6.90957C11.5103 6.91232 10.9878 7.22716 8.87856 8.55635C7.44419 9.46024 6.25241 10.1998 6.23016 10.1998C6.13299 10.1998 3.91345 9.48592 3.80812 9.42078C3.58338 9.28179 3.63118 9.07096 3.92476 8.90674C4.00122 8.86398 4.5622 8.63667 5.17138 8.40161C5.78056 8.16659 6.92851 7.72366 7.72237 7.41738C8.51623 7.11109 9.9341 6.56352 10.8732 6.20055C12.9319 5.40488 12.9125 5.412 13.013 5.41041C13.0572 5.40971 13.1472 5.43169 13.2131 5.4592Z" fill="#4CA7D5"/>
</g>
</svg>
