<svg width="18" height="21" viewBox="0 0 18 21" fill="none" xmlns="http://www.w3.org/2000/svg">
<g style="mix-blend-mode:luminosity" opacity="0.75">
<circle cx="9" cy="9" r="6.75" fill="white"/>
<path fill-rule="evenodd" clip-rule="evenodd" d="M6.40055 0.0259994C5.92597 0.0731825 5.24389 0.219771 4.78579 0.37303C3.70638 0.734191 2.90614 1.23804 2.05681 2.09129C1.19977 2.95224 0.681646 3.78188 0.322185 4.86872C0.00652318 5.82305 0 5.89909 0 8.61452C0 10.8132 0.00971119 11.1294 0.0885286 11.4897C0.543433 13.5706 1.82698 15.3413 3.58038 16.3068L3.97275 16.5229L3.98477 18.2998C3.99654 20.0417 3.99884 20.0785 4.10057 20.1633C4.34021 20.3629 4.36851 20.3412 5.98184 18.7209L7.50409 17.192L9.78474 17.1723C11.8801 17.1542 12.0992 17.1443 12.4823 17.0508C14.9982 16.4366 16.9082 14.6936 17.6955 12.2933C17.9932 11.3856 18 11.3038 18 8.61452C18 6.41484 17.9902 6.0982 17.9109 5.72424C17.6208 4.35628 17.0141 3.19676 16.0698 2.20571C14.8812 0.958299 13.4301 0.235137 11.7362 0.0462066C11.3063 -0.00176704 6.84942 -0.0186641 6.40055 0.0259994ZM10.8536 2.88772C13.0025 3.33376 14.5889 5.2826 14.5903 7.47817C14.5905 7.88009 14.5316 8.42485 14.4633 8.65212C14.4223 8.78887 14.1785 8.89475 14.033 8.83902C13.8299 8.76126 13.7908 8.62815 13.8588 8.24525C13.8953 8.03953 13.9089 7.68044 13.8937 7.32274C13.8517 6.32838 13.503 5.48996 12.8347 4.77628C12.0531 3.94171 11.1786 3.543 9.96724 3.46884C9.53642 3.4425 9.40728 3.41716 9.33548 3.34483C9.21777 3.22625 9.2213 3.10027 9.3469 2.93945C9.44514 2.81361 9.46569 2.80926 9.96204 2.80926C10.2445 2.80926 10.6457 2.84459 10.8536 2.88772ZM5.92955 4.02061C6.12819 4.11557 7.72529 5.73338 7.83893 5.95477C8.11937 6.50106 7.89866 7.08766 7.3131 7.35233C6.81543 7.57723 6.55249 7.97673 6.61802 8.40825C6.76614 9.38308 8.05973 10.8529 9.12183 11.2532C9.72795 11.4817 10.2307 11.2907 10.5167 10.7234C10.6743 10.4107 10.8675 10.2037 11.0754 10.1246C11.2674 10.0515 11.6699 10.0589 11.8585 10.1391C12.0291 10.2115 13.6525 11.8547 13.8091 12.1133C13.9335 12.3189 13.9346 12.7445 13.8113 13.0117C13.6936 13.267 12.5782 14.3708 12.2861 14.521C11.6978 14.8235 10.6315 14.6514 9.47634 14.0677C9.08868 13.8718 8.04904 13.1776 7.60218 12.8163C5.58991 11.1893 3.91262 8.86224 3.50313 7.12941C3.35256 6.49231 3.38145 5.85092 3.5769 5.49109C3.76337 5.14777 4.89865 4.02145 5.12926 3.9509C5.34291 3.88558 5.71488 3.91799 5.92955 4.02061ZM10.7358 4.24067C11.3305 4.39387 11.7583 4.64664 12.2409 5.12998C12.9032 5.79311 13.2171 6.52932 13.224 7.43548C13.2259 7.68973 13.2026 7.9335 13.1707 7.99368C13.0848 8.15524 12.8976 8.20904 12.7283 8.12085C12.5522 8.0291 12.5159 7.91705 12.5561 7.58884C12.5972 7.25238 12.4792 6.68159 12.2869 6.28733C12.0997 5.90339 11.6587 5.42854 11.2807 5.20384C10.8371 4.94026 10.429 4.82999 9.89127 4.8285C9.37496 4.82707 9.24523 4.75928 9.24523 4.49101C9.24523 4.22234 9.3962 4.14324 9.90878 4.14324C10.1949 4.14324 10.4946 4.17856 10.7358 4.24067ZM10.7827 5.71688C11.3968 6.02137 11.8363 6.65674 11.8825 7.30673C11.9031 7.59763 11.8931 7.65169 11.8018 7.74373C11.5717 7.97545 11.2916 7.7875 11.2423 7.36839C11.203 7.03361 11.0682 6.77818 10.799 6.52818C10.5772 6.32226 10.2048 6.1689 9.92653 6.1689C9.83948 6.1689 9.75595 6.1229 9.69023 6.03871C9.56217 5.87478 9.56286 5.81989 9.69494 5.65077C9.79661 5.52054 9.81608 5.5156 10.1368 5.53872C10.3782 5.55611 10.5594 5.60611 10.7827 5.71688Z" fill="#8C7CF7"/>
</g>
</svg>
