<svg width="18" height="18" viewBox="0 0 18 18" fill="none" xmlns="http://www.w3.org/2000/svg">
<g style="mix-blend-mode:luminosity" opacity="0.65">
<circle cx="9" cy="9" r="6.75" fill="white"/>
<path fill-rule="evenodd" clip-rule="evenodd" d="M8.34844 0.00581902C6.98759 0.138256 5.96142 0.431919 4.84844 1.00731C3.14935 1.88577 1.77737 3.28363 0.929073 5.00066C0.603169 5.66035 0.449575 6.0647 0.27924 6.71164C0.0644967 7.52703 0.00197347 8.02274 3.50338e-05 8.92485C-0.00091656 9.37397 0.0176219 9.86145 0.042892 10.0511C0.235044 11.4931 0.687932 12.7359 1.44537 13.8993L1.69782 14.2872L1.13701 15.9403C0.828556 16.8496 0.581071 17.5984 0.587028 17.6044C0.593019 17.6103 1.36448 17.3703 2.30141 17.071C3.23838 16.7717 4.01749 16.5269 4.03282 16.5269C4.04815 16.5269 4.19279 16.6089 4.35425 16.7091C4.5157 16.8093 4.85398 16.9898 5.10597 17.1103C7.38465 18.1993 9.98948 18.2925 12.3227 17.3685C14.9664 16.3216 16.9969 14.0313 17.7217 11.2788C17.9437 10.4358 18 9.97365 18 8.99524C18 8.01683 17.9437 7.55469 17.7217 6.71164C16.8714 3.48265 14.2797 0.972718 11.0094 0.211109C10.4599 0.0831414 9.88815 0.0183131 9.1943 0.0053263C8.80661 -0.00195897 8.42598 -0.0017478 8.34844 0.00581902ZM6.19893 4.18211C6.25729 4.21234 6.33906 4.29804 6.38068 4.37251C6.48575 4.56059 7.34257 6.62133 7.36752 6.74599C7.39945 6.90546 7.24329 7.17656 6.89296 7.5699C6.52737 7.9803 6.44881 8.11207 6.48134 8.26006C6.54045 8.52863 7.35554 9.60808 7.85773 10.0828C8.63702 10.8194 9.81492 11.5189 10.3397 11.5567C10.6096 11.5762 10.708 11.4999 11.1208 10.9512C11.308 10.7023 11.5078 10.4522 11.5646 10.3954C11.7006 10.2597 11.9024 10.2309 12.1287 10.315C12.419 10.4229 14.1936 11.2859 14.3182 11.3798L14.4375 11.4697L14.4178 11.8426C14.3673 12.7999 14.031 13.2971 13.1417 13.7293C12.2961 14.1402 11.6342 14.129 10.3384 13.6817C8.59998 13.0817 7.67721 12.5086 6.42685 11.2521C5.8012 10.6234 5.35659 10.0919 4.84805 9.36478C4.01009 8.16651 3.68873 7.24125 3.78438 6.30215C3.86107 5.5492 4.12456 4.99338 4.65671 4.46201C4.91414 4.20491 5.251 4.09908 5.75799 4.11598C5.97308 4.12312 6.13077 4.14677 6.19893 4.18211Z" fill="#3ED54F"/>
</g>
</svg>
