<svg width="73" height="50" viewBox="0 0 73 50" fill="none" xmlns="http://www.w3.org/2000/svg">
<path d="M62.0195 0V13.5797H46.9074V0H36.2037V0.241301L23.5206 21.6502L10.7074 0.011137V0H0V39.0907H10.7074V20.028L19.424 34.7473H27.6171L36.2037 20.2581V39.0907H46.9074V23.0424H62.0195V39.0907H72.7269V0H62.0195Z" fill="white"/>
<path d="M2.17197 48.5731C1.75688 48.5731 1.38282 48.4874 1.04978 48.3158C0.721575 48.1393 0.463353 47.8966 0.275116 47.5878C0.0917052 47.2789 0 46.9284 0 46.5362C0 46.144 0.0917052 45.7935 0.275116 45.4846C0.463353 45.1758 0.721575 44.9356 1.04978 44.764C1.38282 44.5875 1.75688 44.4993 2.17197 44.4993C2.58223 44.4993 2.93939 44.5875 3.24347 44.764C3.55237 44.9356 3.77681 45.1831 3.91678 45.5067L3.04075 45.9847C2.83803 45.6219 2.54603 45.4405 2.16473 45.4405C1.8703 45.4405 1.62656 45.5386 1.4335 45.7347C1.24043 45.9308 1.1439 46.1979 1.1439 46.5362C1.1439 46.8745 1.24043 47.1416 1.4335 47.3377C1.62656 47.5338 1.8703 47.6319 2.16473 47.6319C2.55085 47.6319 2.84286 47.4505 3.04075 47.0877L3.91678 47.5731C3.77681 47.8868 3.55237 48.1319 3.24347 48.3084C2.93939 48.4849 2.58223 48.5731 2.17197 48.5731Z" fill="white"/>
<path d="M8.49108 44.5581V48.5143H7.41958V48.0437C7.26996 48.2153 7.09137 48.3476 6.88383 48.4408C6.67628 48.529 6.45185 48.5731 6.21052 48.5731C5.6989 48.5731 5.29347 48.4236 4.99422 48.1246C4.69497 47.8255 4.54535 47.3819 4.54535 46.7936V44.5581H5.67477V46.6244C5.67477 47.2618 5.93782 47.5804 6.46391 47.5804C6.7342 47.5804 6.9514 47.4922 7.1155 47.3157C7.27961 47.1343 7.36166 46.8671 7.36166 46.5141V44.5581H8.49108Z" fill="white"/>
<path d="M10.8478 48.5731C10.5245 48.5731 10.2083 48.5339 9.89941 48.4555C9.59051 48.3721 9.34435 48.2692 9.16094 48.1466L9.53742 47.323C9.71117 47.4358 9.92113 47.5289 10.1673 47.6025C10.4134 47.6711 10.6548 47.7054 10.8913 47.7054C11.3691 47.7054 11.608 47.5853 11.608 47.3451C11.608 47.2323 11.5429 47.1515 11.4125 47.1024C11.2822 47.0534 11.0819 47.0117 10.8116 46.9774C10.4931 46.9284 10.23 46.872 10.0225 46.8083C9.81494 46.7446 9.63395 46.6318 9.4795 46.47C9.32987 46.3082 9.25506 46.0778 9.25506 45.7788C9.25506 45.5288 9.32504 45.3082 9.46502 45.117C9.60981 44.9209 9.81736 44.7689 10.0876 44.661C10.3628 44.5532 10.6861 44.4993 11.0578 44.4993C11.3329 44.4993 11.6056 44.5311 11.8759 44.5949C12.151 44.6537 12.3779 44.737 12.5564 44.8449L12.18 45.6611C11.8373 45.465 11.4632 45.367 11.0578 45.367C10.8165 45.367 10.6355 45.4013 10.5148 45.4699C10.3941 45.5386 10.3338 45.6268 10.3338 45.7347C10.3338 45.8572 10.399 45.943 10.5293 45.992C10.6596 46.0411 10.8671 46.0876 11.1519 46.1318C11.4705 46.1857 11.7311 46.2445 11.9338 46.3082C12.1365 46.3671 12.3127 46.4774 12.4623 46.6392C12.612 46.8009 12.6868 47.0264 12.6868 47.3157C12.6868 47.5608 12.6144 47.779 12.4696 47.9702C12.3248 48.1613 12.1124 48.3109 11.8325 48.4187C11.5573 48.5217 11.2291 48.5731 10.8478 48.5731Z" fill="white"/>
<path d="M15.8958 48.3231C15.7848 48.4065 15.6473 48.4702 15.4832 48.5143C15.3239 48.5535 15.155 48.5731 14.9764 48.5731C14.513 48.5731 14.1534 48.453 13.8976 48.2128C13.6467 47.9726 13.5212 47.6196 13.5212 47.1539V45.5288H12.9202V44.6463H13.5212V43.683H14.6506V44.6463H15.6207V45.5288H14.6506V47.1392C14.6506 47.3059 14.6916 47.4358 14.7737 47.5289C14.8605 47.6172 14.9812 47.6613 15.1357 47.6613C15.3142 47.6613 15.4663 47.6123 15.5918 47.5142L15.8958 48.3231Z" fill="white"/>
<path d="M18.2631 48.5731C17.8528 48.5731 17.4836 48.4874 17.1554 48.3158C16.832 48.1393 16.5786 47.8966 16.3952 47.5878C16.2118 47.2789 16.1201 46.9284 16.1201 46.5362C16.1201 46.144 16.2118 45.7935 16.3952 45.4846C16.5786 45.1758 16.832 44.9356 17.1554 44.764C17.4836 44.5875 17.8528 44.4993 18.2631 44.4993C18.6733 44.4993 19.0401 44.5875 19.3635 44.764C19.6869 44.9356 19.9403 45.1758 20.1237 45.4846C20.3071 45.7935 20.3988 46.144 20.3988 46.5362C20.3988 46.9284 20.3071 47.2789 20.1237 47.5878C19.9403 47.8966 19.6869 48.1393 19.3635 48.3158C19.0401 48.4874 18.6733 48.5731 18.2631 48.5731ZM18.2631 47.6319C18.5527 47.6319 18.7892 47.5338 18.9726 47.3377C19.1608 47.1367 19.2549 46.8696 19.2549 46.5362C19.2549 46.2028 19.1608 45.9381 18.9726 45.742C18.7892 45.541 18.5527 45.4405 18.2631 45.4405C17.9735 45.4405 17.7345 45.541 17.5463 45.742C17.3581 45.9381 17.264 46.2028 17.264 46.5362C17.264 46.8696 17.3581 47.1367 17.5463 47.3377C17.7345 47.5338 17.9735 47.6319 18.2631 47.6319Z" fill="white"/>
<path d="M26.142 44.4993C26.6295 44.4993 27.0156 44.6463 27.3004 44.9405C27.59 45.2297 27.7348 45.666 27.7348 46.2494V48.5143H26.6054V46.4259C26.6054 46.1121 26.5402 45.8793 26.4099 45.7273C26.2844 45.5704 26.1034 45.492 25.8669 45.492C25.6015 45.492 25.3915 45.5802 25.237 45.7567C25.0826 45.9283 25.0054 46.1857 25.0054 46.5289V48.5143H23.8759V46.4259C23.8759 45.8033 23.6298 45.492 23.1375 45.492C22.8768 45.492 22.6693 45.5802 22.5148 45.7567C22.3604 45.9283 22.2832 46.1857 22.2832 46.5289V48.5143H21.1538V44.5581H22.2325V45.014C22.3773 44.8473 22.5535 44.7199 22.761 44.6316C22.9734 44.5434 23.2051 44.4993 23.456 44.4993C23.7311 44.4993 23.9797 44.5556 24.2017 44.6684C24.4238 44.7762 24.6024 44.9356 24.7375 45.1464C24.8968 44.9405 25.0971 44.7812 25.3384 44.6684C25.5846 44.5556 25.8524 44.4993 26.142 44.4993Z" fill="white"/>
<path d="M30.0576 48.5731C29.7342 48.5731 29.418 48.5339 29.1091 48.4555C28.8002 48.3721 28.5541 48.2692 28.3707 48.1466L28.7471 47.323C28.9209 47.4358 29.1309 47.5289 29.377 47.6025C29.6232 47.6711 29.8645 47.7054 30.101 47.7054C30.5788 47.7054 30.8178 47.5853 30.8178 47.3451C30.8178 47.2323 30.7526 47.1515 30.6223 47.1024C30.492 47.0534 30.2917 47.0117 30.0214 46.9774C29.7028 46.9284 29.4398 46.872 29.2322 46.8083C29.0247 46.7446 28.8437 46.6318 28.6892 46.47C28.5396 46.3082 28.4648 46.0778 28.4648 45.7788C28.4648 45.5288 28.5348 45.3082 28.6747 45.117C28.8195 44.9209 29.0271 44.7689 29.2974 44.661C29.5725 44.5532 29.8959 44.4993 30.2675 44.4993C30.5426 44.4993 30.8153 44.5311 31.0856 44.5949C31.3607 44.6537 31.5876 44.737 31.7662 44.8449L31.3897 45.6611C31.047 45.465 30.673 45.367 30.2675 45.367C30.0262 45.367 29.8452 45.4013 29.7245 45.4699C29.6039 45.5386 29.5435 45.6268 29.5435 45.7347C29.5435 45.8572 29.6087 45.943 29.739 45.992C29.8693 46.0411 30.0769 46.0876 30.3616 46.1318C30.6802 46.1857 30.9408 46.2445 31.1435 46.3082C31.3463 46.3671 31.5224 46.4774 31.6721 46.6392C31.8217 46.8009 31.8965 47.0264 31.8965 47.3157C31.8965 47.5608 31.8241 47.779 31.6793 47.9702C31.5345 48.1613 31.3221 48.3109 31.0422 48.4187C30.7671 48.5217 30.4389 48.5731 30.0576 48.5731Z" fill="white"/>
<path d="M38.6184 48.6026L38.0102 48.029C37.5276 48.4114 36.9629 48.6026 36.3161 48.6026C35.9493 48.6026 35.6187 48.5437 35.3242 48.4261C35.0298 48.3035 34.7981 48.1344 34.6292 47.9187C34.4651 47.703 34.3831 47.4603 34.3831 47.1907C34.3831 46.872 34.4699 46.5926 34.6437 46.3524C34.8223 46.1072 35.107 45.8744 35.498 45.6538C35.3146 45.4626 35.1819 45.2812 35.0998 45.1096C35.0177 44.9331 34.9767 44.7517 34.9767 44.5654C34.9767 44.3154 35.0419 44.0948 35.1722 43.9036C35.3025 43.7124 35.4859 43.5654 35.7224 43.4624C35.9638 43.3546 36.2413 43.3006 36.555 43.3006C36.9942 43.3006 37.3466 43.4085 37.612 43.6242C37.8775 43.835 38.0102 44.1218 38.0102 44.4846C38.0102 44.7493 37.9306 44.9846 37.7713 45.1905C37.6169 45.3964 37.3659 45.5949 37.0184 45.7861L37.9451 46.6612C38.0561 46.4259 38.1406 46.1587 38.1985 45.8597L39.1035 46.1465C39.0069 46.6024 38.8525 46.9921 38.6401 47.3157L39.2338 47.8746L38.6184 48.6026ZM36.555 44.0801C36.3861 44.0801 36.2509 44.1242 36.1496 44.2125C36.0531 44.3007 36.0048 44.4135 36.0048 44.5507C36.0048 44.6537 36.0313 44.7517 36.0844 44.8449C36.1375 44.9331 36.2413 45.0532 36.3957 45.2052C36.6419 45.0728 36.8132 44.9552 36.9098 44.8522C37.0063 44.7444 37.0546 44.6292 37.0546 44.5066C37.0546 44.3792 37.0111 44.2762 36.9243 44.1978C36.8374 44.1193 36.7143 44.0801 36.555 44.0801ZM36.3957 47.7054C36.7481 47.7054 37.0642 47.6049 37.3442 47.4039L36.1206 46.2421C35.8938 46.3744 35.7321 46.5043 35.6356 46.6318C35.539 46.7593 35.4908 46.9039 35.4908 47.0657C35.4908 47.2569 35.5728 47.4113 35.7369 47.5289C35.901 47.6466 36.1206 47.7054 36.3957 47.7054Z" fill="white"/>
<path d="M41.9613 43.058H43.0908V48.5143H41.9613V43.058Z" fill="white"/>
<path d="M45.9924 48.5731C45.5821 48.5731 45.2129 48.4874 44.8847 48.3158C44.5613 48.1393 44.3079 47.8966 44.1245 47.5878C43.9411 47.2789 43.8494 46.9284 43.8494 46.5362C43.8494 46.144 43.9411 45.7935 44.1245 45.4846C44.3079 45.1758 44.5613 44.9356 44.8847 44.764C45.2129 44.5875 45.5821 44.4993 45.9924 44.4993C46.4026 44.4993 46.7695 44.5875 47.0928 44.764C47.4162 44.9356 47.6696 45.1758 47.853 45.4846C48.0364 45.7935 48.1281 46.144 48.1281 46.5362C48.1281 46.9284 48.0364 47.2789 47.853 47.5878C47.6696 47.8966 47.4162 48.1393 47.0928 48.3158C46.7695 48.4874 46.4026 48.5731 45.9924 48.5731ZM45.9924 47.6319C46.282 47.6319 46.5185 47.5338 46.7019 47.3377C46.8901 47.1367 46.9842 46.8696 46.9842 46.5362C46.9842 46.2028 46.8901 45.9381 46.7019 45.742C46.5185 45.541 46.282 45.4405 45.9924 45.4405C45.7028 45.4405 45.4639 45.541 45.2756 45.742C45.0874 45.9381 44.9933 46.2028 44.9933 46.5362C44.9933 46.8696 45.0874 47.1367 45.2756 47.3377C45.4639 47.5338 45.7028 47.6319 45.9924 47.6319Z" fill="white"/>
<path d="M52.9012 44.5581V47.8525C52.9012 48.578 52.7154 49.1173 52.3437 49.4703C51.9721 49.8233 51.4291 49.9997 50.7148 49.9997C50.3383 49.9997 49.9811 49.9532 49.6433 49.86C49.3054 49.7669 49.0255 49.6321 48.8034 49.4556L49.2523 48.632C49.4164 48.7692 49.624 48.8771 49.8749 48.9555C50.1259 49.0389 50.3769 49.0805 50.6279 49.0805C51.0188 49.0805 51.306 48.9898 51.4894 48.8085C51.6777 48.632 51.7718 48.3623 51.7718 47.9996V47.8304C51.4774 48.1589 51.0671 48.3231 50.541 48.3231C50.1838 48.3231 49.8556 48.2447 49.5564 48.0878C49.262 47.926 49.0279 47.7005 48.8541 47.4113C48.6804 47.122 48.5935 46.7887 48.5935 46.4112C48.5935 46.0337 48.6804 45.7003 48.8541 45.4111C49.0279 45.1219 49.262 44.8988 49.5564 44.7419C49.8556 44.5802 50.1838 44.4993 50.541 44.4993C51.1057 44.4993 51.5353 44.688 51.8297 45.0655V44.5581H52.9012ZM50.7654 47.3819C51.0647 47.3819 51.3084 47.2936 51.4967 47.1171C51.6897 46.9357 51.7863 46.7004 51.7863 46.4112C51.7863 46.122 51.6897 45.8891 51.4967 45.7126C51.3084 45.5312 51.0647 45.4405 50.7654 45.4405C50.4662 45.4405 50.22 45.5312 50.027 45.7126C49.8339 45.8891 49.7374 46.122 49.7374 46.4112C49.7374 46.7004 49.8339 46.9357 50.027 47.1171C50.22 47.2936 50.4662 47.3819 50.7654 47.3819Z" fill="white"/>
<path d="M53.9524 44.5581H55.0818V48.5143H53.9524V44.5581ZM54.5171 44.0066C54.3096 44.0066 54.1406 43.9453 54.0103 43.8227C53.88 43.7002 53.8148 43.5482 53.8148 43.3668C53.8148 43.1854 53.88 43.0335 54.0103 42.9109C54.1406 42.7883 54.3096 42.7271 54.5171 42.7271C54.7247 42.7271 54.8936 42.7859 55.0239 42.9035C55.1542 43.0212 55.2194 43.1683 55.2194 43.3448C55.2194 43.5359 55.1542 43.6953 55.0239 43.8227C54.8936 43.9453 54.7247 44.0066 54.5171 44.0066Z" fill="white"/>
<path d="M57.4404 48.5731C57.1171 48.5731 56.8009 48.5339 56.492 48.4555C56.1831 48.3721 55.937 48.2692 55.7535 48.1466L56.13 47.323C56.3038 47.4358 56.5137 47.5289 56.7599 47.6025C57.0061 47.6711 57.2474 47.7054 57.4839 47.7054C57.9617 47.7054 58.2006 47.5853 58.2006 47.3451C58.2006 47.2323 58.1355 47.1515 58.0052 47.1024C57.8748 47.0534 57.6745 47.0117 57.4042 46.9774C57.0857 46.9284 56.8226 46.872 56.6151 46.8083C56.4076 46.7446 56.2266 46.6318 56.0721 46.47C55.9225 46.3082 55.8477 46.0778 55.8477 45.7788C55.8477 45.5288 55.9177 45.3082 56.0576 45.117C56.2024 44.9209 56.41 44.7689 56.6803 44.661C56.9554 44.5532 57.2788 44.4993 57.6504 44.4993C57.9255 44.4993 58.1982 44.5311 58.4685 44.5949C58.7436 44.6537 58.9705 44.737 59.1491 44.8449L58.7726 45.6611C58.4299 45.465 58.0558 45.367 57.6504 45.367C57.4091 45.367 57.2281 45.4013 57.1074 45.4699C56.9867 45.5386 56.9264 45.6268 56.9264 45.7347C56.9264 45.8572 56.9916 45.943 57.1219 45.992C57.2522 46.0411 57.4597 46.0876 57.7445 46.1318C58.0631 46.1857 58.3237 46.2445 58.5264 46.3082C58.7291 46.3671 58.9053 46.4774 59.0549 46.6392C59.2046 46.8009 59.2794 47.0264 59.2794 47.3157C59.2794 47.5608 59.207 47.779 59.0622 47.9702C58.9174 48.1613 58.705 48.3109 58.4251 48.4187C58.1499 48.5217 57.8217 48.5731 57.4404 48.5731Z" fill="white"/>
<path d="M62.4884 48.3231C62.3774 48.4065 62.2399 48.4702 62.0758 48.5143C61.9165 48.5535 61.7476 48.5731 61.569 48.5731C61.1056 48.5731 60.7461 48.453 60.4902 48.2128C60.2393 47.9726 60.1138 47.6196 60.1138 47.1539V45.5288H59.5129V44.6463H60.1138V43.683H61.2432V44.6463H62.2133V45.5288H61.2432V47.1392C61.2432 47.3059 61.2842 47.4358 61.3663 47.5289C61.4531 47.6172 61.5738 47.6613 61.7283 47.6613C61.9068 47.6613 62.0589 47.6123 62.1844 47.5142L62.4884 48.3231Z" fill="white"/>
<path d="M63.1224 44.5581H64.2519V48.5143H63.1224V44.5581ZM63.6872 44.0066C63.4796 44.0066 63.3107 43.9453 63.1804 43.8227C63.05 43.7002 62.9849 43.5482 62.9849 43.3668C62.9849 43.1854 63.05 43.0335 63.1804 42.9109C63.3107 42.7883 63.4796 42.7271 63.6872 42.7271C63.8947 42.7271 64.0636 42.7859 64.194 42.9035C64.3243 43.0212 64.3894 43.1683 64.3894 43.3448C64.3894 43.5359 64.3243 43.6953 64.194 43.8227C64.0636 43.9453 63.8947 44.0066 63.6872 44.0066Z" fill="white"/>
<path d="M67.1824 48.5731C66.7674 48.5731 66.3933 48.4874 66.0603 48.3158C65.732 48.1393 65.4738 47.8966 65.2856 47.5878C65.1022 47.2789 65.0105 46.9284 65.0105 46.5362C65.0105 46.144 65.1022 45.7935 65.2856 45.4846C65.4738 45.1758 65.732 44.9356 66.0603 44.764C66.3933 44.5875 66.7674 44.4993 67.1824 44.4993C67.5927 44.4993 67.9499 44.5875 68.2539 44.764C68.5628 44.9356 68.7873 45.1831 68.9272 45.5067L68.0512 45.9847C67.8485 45.6219 67.5565 45.4405 67.1752 45.4405C66.8808 45.4405 66.637 45.5386 66.444 45.7347C66.2509 45.9308 66.1544 46.1979 66.1544 46.5362C66.1544 46.8745 66.2509 47.1416 66.444 47.3377C66.637 47.5338 66.8808 47.6319 67.1752 47.6319C67.5613 47.6319 67.8533 47.4505 68.0512 47.0877L68.9272 47.5731C68.7873 47.8868 68.5628 48.1319 68.2539 48.3084C67.9499 48.4849 67.5927 48.5731 67.1824 48.5731Z" fill="white"/>
<path d="M70.888 48.5731C70.5646 48.5731 70.2484 48.5339 69.9395 48.4555C69.6306 48.3721 69.3845 48.2692 69.2011 48.1466L69.5775 47.323C69.7513 47.4358 69.9613 47.5289 70.2074 47.6025C70.4536 47.6711 70.6949 47.7054 70.9314 47.7054C71.4092 47.7054 71.6481 47.5853 71.6481 47.3451C71.6481 47.2323 71.583 47.1515 71.4527 47.1024C71.3223 47.0534 71.122 47.0117 70.8518 46.9774C70.5332 46.9284 70.2702 46.872 70.0626 46.8083C69.8551 46.7446 69.6741 46.6318 69.5196 46.47C69.37 46.3082 69.2952 46.0778 69.2952 45.7788C69.2952 45.5288 69.3652 45.3082 69.5051 45.117C69.6499 44.9209 69.8575 44.7689 70.1278 44.661C70.4029 44.5532 70.7263 44.4993 71.0979 44.4993C71.373 44.4993 71.6457 44.5311 71.916 44.5949C72.1911 44.6537 72.418 44.737 72.5966 44.8449L72.2201 45.6611C71.8774 45.465 71.5033 45.367 71.0979 45.367C70.8566 45.367 70.6756 45.4013 70.5549 45.4699C70.4343 45.5386 70.3739 45.6268 70.3739 45.7347C70.3739 45.8572 70.4391 45.943 70.5694 45.992C70.6997 46.0411 70.9073 46.0876 71.192 46.1318C71.5106 46.1857 71.7712 46.2445 71.9739 46.3082C72.1767 46.3671 72.3528 46.4774 72.5025 46.6392C72.6521 46.8009 72.7269 47.0264 72.7269 47.3157C72.7269 47.5608 72.6545 47.779 72.5097 47.9702C72.3649 48.1613 72.1525 48.3109 71.8726 48.4187C71.5975 48.5217 71.2693 48.5731 70.888 48.5731Z" fill="white"/>
</svg>
